<svg xmlns="http://www.w3.org/2000/svg" xmlns:xlink="http://www.w3.org/1999/xlink" width="68" height="68" viewBox="0 0 68 68">
    <defs>
        <path id="a" d="M0 30.874h35V0H0z"/>
    </defs>
    <g fill="none" fill-rule="evenodd">
        <circle cx="34" cy="34" r="34" fill="#F7F7F7"/>
        <g transform="translate(17 19)">
            <path fill="#7B8C7D" d="M20.686 9.478a.865.865 0 0 0-1.011-1.116l-.095.019a5.69 5.69 0 0 0 1.106 1.097M17.64 8.88c.02-.142.065-.277.136-.397-1.29-.131-2.366-.684-3.16-1.257a8.075 8.075 0 0 1-1.309-1.187c-.028-.034-.049-.058-.06-.074l-.013-.015a.875.875 0 0 0-.186-.18l-2.866-2.873a.678.678 0 0 0-.147-.11 5.237 5.237 0 0 0-.722-.511c-.515-.3-1.25-.623-2.147-.625-.872-.01-1.869.347-2.722 1.205-.86.857-1.617 2.17-2.256 4.15a.865.865 0 1 0 1.647.53c.583-1.814 1.245-2.878 1.826-3.451.588-.571 1.058-.696 1.505-.704.204-.001.41.036.604.094-1.734 2.079-2.709 4.636-3.604 7.227-.03.086-.048.172-.058.258a1.345 1.345 0 0 0 .146 1.113h.001c.065.112.548 1.026.543 2.295A5.66 5.66 0 0 1 4.28 16.7c-.396.878-1.066 1.86-2.203 2.91A1.353 1.353 0 0 0 3.91 21.6c1.37-1.262 2.278-2.551 2.834-3.791a8.31 8.31 0 0 0 .757-3.44 8.072 8.072 0 0 0-.043-.814 5.66 5.66 0 0 1 1.326.979c.352.35.687.784.932 1.302.244.52.407 1.126.408 1.88 0 .662-.128 1.443-.475 2.375a1.352 1.352 0 1 0 2.533.946c.446-1.196.646-2.306.645-3.32a7.02 7.02 0 0 0-.707-3.118c-.639-1.306-1.57-2.191-2.329-2.758a8.77 8.77 0 0 0-.566-.386c.64-2.251 1.67-3.055 3.204-3.822.287.287.68.64 1.173.997 1.093.789 2.704 1.603 4.718 1.613a7.925 7.925 0 0 1-.47-.561 1.08 1.08 0 0 1-.21-.801"/>
            <path fill="#7B8C7D" d="M11.572 1.23A2.433 2.433 0 1 1 15.8 3.638a2.433 2.433 0 0 1-4.228-2.41M24.86 7.837a2.433 2.433 0 1 1 4.862.194 2.433 2.433 0 0 1-4.862-.194"/>
            <path fill="#7B8C7D" d="M32.075 10.495a5.302 5.302 0 0 0-1.762-.32.808.808 0 0 0-.293.006l-3.912.914a9.176 9.176 0 0 1-.64.022c-.747 0-1.858-.087-2.974-.462a6.824 6.824 0 0 1-1.903-.977A5.928 5.928 0 0 1 19.4 8.503a.865.865 0 0 0-1.377 1.047c.188.247.386.475.59.688 1.009 1.043 2.202 1.68 3.33 2.058 1.364.455 2.649.55 3.525.55h.039c.85 1.358 1.346 2.48.986 4.332a7.575 7.575 0 0 0-.897-.48c-.615-.272-1.323-.478-2.107-.48-.948-.01-1.996.344-2.85 1.109-.86.762-1.55 1.865-2.113 3.378a1.352 1.352 0 0 0 2.534.94c.458-1.236.962-1.935 1.368-2.29.413-.35.703-.423 1.06-.432.295-.002.644.083 1.008.246.547.24 1.105.653 1.5 1.005.2.175.36.335.467.445l.118.126.025.028s0 .002.002.003c.34.396.858.546 1.332.437a9.762 9.762 0 0 0-.051 1.002c-.001 1.816.477 4.405 2.265 7.475a1.35 1.35 0 1 0 2.337-1.358c-1.561-2.691-1.895-4.764-1.897-6.117 0-.64.077-1.118.147-1.422.034-.152.067-.26.088-.322l.02-.057v-.002c.026-.058.043-.115.06-.174a1.25 1.25 0 0 0 .088-.252c.587-2.567 1.097-5.15.806-7.726.063.032.126.066.188.105.333.205.634.484.869.913.235.43.408 1.029.41 1.902 0 .623-.091 1.383-.32 2.298a.864.864 0 1 0 1.68.417c.255-1.026.37-1.923.37-2.715.002-1.106-.23-2.014-.62-2.73-.587-1.082-1.513-1.67-2.305-1.955"/>
            <mask id="b" fill="#fff">
                <use xlink:href="#a"/>
            </mask>
            <path fill="#7B8C7D" d="M0 30.873h18.513V22.22H0z" mask="url(#b)"/>
        </g>
    </g>
</svg>
