<svg xmlns="http://www.w3.org/2000/svg" xmlns:xlink="http://www.w3.org/1999/xlink" width="68" height="68" viewBox="0 0 68 68">
    <defs>
        <path id="a" d="M0 0h33.796v18.44H0z"/>
    </defs>
    <g fill="none" fill-rule="evenodd">
        <circle cx="34" cy="34" r="34" fill="#F7F7F7"/>
        <path fill="#7B8C7D" d="M38.793 43.344a1.51 1.51 0 0 0-1.506 1.506v3.199a.932.932 0 0 1-.94.94.932.932 0 0 1-.942-.94V34.915c-.587.67-1.187.78-1.496.78-.645 0-1.2-.301-1.514-.797v13.151a3.95 3.95 0 0 0 3.951 3.95 3.95 3.95 0 0 0 3.952-3.95v-3.2a1.51 1.51 0 0 0-1.505-1.505"/>
        <g transform="translate(17 17)">
            <mask id="b" fill="#fff">
                <use xlink:href="#a"/>
            </mask>
            <path fill="#7B8C7D" d="M33.686 16.334c-1.092-7.152-7.452-12.646-15.28-13.248v-1.58A1.51 1.51 0 0 0 16.9 0a1.51 1.51 0 0 0-1.506 1.506v1.58C7.567 3.688 1.207 9.181.115 16.334c-.3.752 0 1.617.754 1.957.225.113.45.15.714.15a1.45 1.45 0 0 0 1.43-1.128 2.944 2.944 0 0 1 2.597-1.506c1.016 0 1.957.489 2.52 1.354.265.415.754.677 1.244.677.489 0 .978-.262 1.242-.677a3.071 3.071 0 0 1 2.52-1.355c.677 0 1.325.236 1.848.64.193.123.72.49 1.012 1.013.244.438.72.486.914.486.184 0 .553-.072.956-.546.424-.503.639-.692.662-.712l.012.014a3.013 3.013 0 0 1 2.124-.895c1.016 0 1.957.49 2.522 1.356a1.5 1.5 0 0 0 1.24.677c.49 0 .98-.263 1.243-.677a3.073 3.073 0 0 1 2.522-1.355c1.09 0 2.069.601 2.597 1.505.188.64.752 1.128 1.467 1.128h.226c.15 0 .339-.037.489-.112.678-.377 1.017-1.242.716-1.994" mask="url(#b)"/>
        </g>
    </g>
</svg>
