<svg width="39" height="177" viewBox="0 0 39 177" fill="none" xmlns="http://www.w3.org/2000/svg">
<path fill-rule="evenodd" clip-rule="evenodd" d="M19 0.5H14V5.5V33.5V139.5H14.6512C6.25356 141.466 0 149.003 0 158C0 168.493 8.50659 177 19 177C29.4934 177 38 168.493 38 158C38 149.003 31.7464 141.466 23.3488 139.5H24V38.5H38.5V28.5H24V10.5H38.5V0.5H19ZM28 158C28 162.971 23.9706 167 19 167C14.0294 167 10 162.971 10 158C10 153.029 14.0294 149 19 149C23.9706 149 28 153.029 28 158Z" fill="#E4AB25"/>
</svg>
