<svg xmlns="http://www.w3.org/2000/svg" xmlns:xlink="http://www.w3.org/1999/xlink" width="68" height="68" viewBox="0 0 68 68">
    <defs>
        <path id="a" d="M.386.74h15.98V7H.386z"/>
    </defs>
    <g fill="none" fill-rule="evenodd">
        <circle cx="34" cy="34" r="34" fill="#F7F7F7"/>
        <path fill="#BF662F" d="M43.377 35.173a3.893 3.893 0 0 1 0 7.786 3.877 3.877 0 0 1-3.894-3.892c.026-2.138 1.756-3.894 3.894-3.894"/>
        <g transform="translate(35 44)">
            <mask id="b" fill="#fff">
                <use xlink:href="#a"/>
            </mask>
            <path fill="#BF662F" d="M7.486.74h1.781c3.614 0 6.666 2.723 7.1 6.26H.386C.818 3.463 3.897.74 7.486.74" mask="url(#b)"/>
        </g>
        <path fill="#BF662F" d="M32.095 47.74H26.14a3.29 3.29 0 0 1-3.282-3.282v-6.08l2.443 2.441c.229.23.534.357.839.357a1.199 1.199 0 0 0 .84-2.037l-4.48-4.503a1.196 1.196 0 0 0-1.677 0l-4.48 4.478a1.199 1.199 0 0 0 0 1.68 1.199 1.199 0 0 0 1.68 0l2.443-2.443v6.081a5.68 5.68 0 0 0 5.674 5.674h5.98c.662 0 1.196-.534 1.196-1.195 0-.662-.56-1.17-1.221-1.17M50.847 27.18a1.199 1.199 0 0 0-1.68 0l-2.442 2.444v-5.471c0-3.13-2.545-5.7-5.7-5.7h-7.43c-.662 0-1.196.535-1.196 1.196 0 .662.534 1.196 1.196 1.196h7.455a3.302 3.302 0 0 1 3.31 3.308v5.47l-2.445-2.442a1.198 1.198 0 0 0-1.679 0 1.198 1.198 0 0 0 0 1.679l4.478 4.479c.23.229.534.356.84.356.306 0 .61-.127.84-.356l4.478-4.48a1.175 1.175 0 0 0-.025-1.678M23.593 26.542h1.78c3.615 0 6.668 2.723 7.1 6.26h-15.98c.459-3.512 3.512-6.26 7.1-6.26M24.509 17a3.893 3.893 0 0 1 3.894 3.893c0 2.163-1.756 3.868-3.894 3.868a3.893 3.893 0 0 1-3.893-3.893c0-2.163 1.756-3.868 3.893-3.868"/>
    </g>
</svg>
