<svg xmlns="http://www.w3.org/2000/svg" xmlns:xlink="http://www.w3.org/1999/xlink" width="68" height="68" viewBox="0 0 68 68">
    <defs>
        <path id="a" d="M0 0h33.796v35H0z"/>
    </defs>
    <g fill="none" fill-rule="evenodd">
        <circle cx="34" cy="34" r="34" fill="#F7F7F7"/>
        <g transform="translate(17 17)">
            <mask id="b" fill="#fff">
                <use xlink:href="#a"/>
            </mask>
            <path fill="#BF662F" d="M28.191 12.796a6.1 6.1 0 0 0-3.764 1.317 6.097 6.097 0 0 0-3.763-1.317 6.1 6.1 0 0 0-3.764 1.317 6.099 6.099 0 0 0-3.763-1.317c-1.392 0-2.71.489-3.763 1.317a6.1 6.1 0 0 0-3.764-1.317c-.414 0-.79.038-1.204.113C6.702 8.807 11.443 6.022 16.9 6.022s10.2 2.785 12.495 6.887a6.55 6.55 0 0 0-1.204-.113m5.494 3.538c-1.092-7.151-7.45-12.646-15.279-13.248V1.505A1.51 1.51 0 0 0 16.9 0a1.51 1.51 0 0 0-1.505 1.505v1.58C7.567 3.689 1.207 9.184.116 16.335c-.302.752 0 1.618.752 1.956.225.113.452.15.715.15a1.45 1.45 0 0 0 1.43-1.128 2.942 2.942 0 0 1 2.597-1.505c1.017 0 1.957.489 2.521 1.354.264.414.753.678 1.243.678.49 0 .978-.264 1.242-.678a3.073 3.073 0 0 1 2.521-1.354 3.02 3.02 0 0 1 2.258 1.016V31.049a3.95 3.95 0 0 0 3.951 3.95 3.95 3.95 0 0 0 3.952-3.95v-3.2a1.51 1.51 0 0 0-1.505-1.505 1.51 1.51 0 0 0-1.505 1.506v3.199c0 .526-.414.94-.942.94a.931.931 0 0 1-.94-.94V16.823a3.02 3.02 0 0 1 2.258-1.016 2.98 2.98 0 0 1 2.521 1.354c.264.414.753.678 1.242.678.49 0 .98-.264 1.243-.678a3.072 3.072 0 0 1 2.521-1.354c1.091 0 2.07.602 2.597 1.505.187.64.752 1.129 1.467 1.129h.226c.15 0 .34-.038.49-.113.677-.376 1.015-1.242.714-1.994" mask="url(#b)"/>
        </g>
    </g>
</svg>
