<svg xmlns="http://www.w3.org/2000/svg" xmlns:xlink="http://www.w3.org/1999/xlink" width="68" height="68" viewBox="0 0 68 68">
    <defs>
        <path id="a" d="M.761.432h4.205v2.221H.761z"/>
        <path id="c" d="M0 0h27.993v35H0z"/>
    </defs>
    <g fill="none" fill-rule="evenodd">
        <circle cx="34" cy="34" r="34" fill="#F7F7F7"/>
        <g transform="translate(46 39)">
            <mask id="b" fill="#fff">
                <use xlink:href="#a"/>
            </mask>
            <path fill="#BF662F" d="M3.998 2.65A.888.888 0 0 0 4.16.88L1.81.447a.884.884 0 1 0-.326 1.74l2.355.438a.939.939 0 0 0 .159.024" mask="url(#b)"/>
        </g>
        <path fill="#BF662F" d="M46.017 45.3a.882.882 0 0 0 1.506-.903l-1.12-1.85a.884.884 0 1 0-1.514.916l1.128 1.838zM46.897 38.033a.87.87 0 0 0 .537-.184l1.715-1.322a.888.888 0 1 0-1.078-1.414l-1.715 1.322a.883.883 0 0 0 .541 1.598"/>
        <g transform="translate(18 17)">
            <mask id="d" fill="#fff">
                <use xlink:href="#c"/>
            </mask>
            <path fill="#BF662F" d="M26.13 15.752c-.426.43-.967.727-1.557.855a.884.884 0 0 0-.632.891l.098 2.033a9.882 9.882 0 0 1-2.474.223 1.575 1.575 0 0 0-1.308.611A1.604 1.604 0 0 0 20 21.818c.251.81 1.011 2.209 3.284 2.718l-.039.153a4.385 4.385 0 0 0-.085 1.696.817.817 0 0 0 .032.11c.135.373.1.787-.099 1.131a1.314 1.314 0 0 1-.923.654 14.85 14.85 0 0 1-4.016.177 9.703 9.703 0 0 1-3.806-1.096 5.117 5.117 0 0 1-1.885-1.588.883.883 0 1 0-1.48.965 6.817 6.817 0 0 0 2.52 2.175c.622.337 1.277.61 1.954.817v3.301c-5.58.954-9.784-1.852-11.14-2.92a13.929 13.929 0 0 0-1.062-12.623 10.334 10.334 0 0 1-1.449-6.247c.452-5.497 5.175-9.473 11.251-9.473h.135c5.373 0 8.367 2.23 9.11 6.812.062.409.101.822.116 1.237a6.226 6.226 0 0 0 3.358 5.225c.143.064.275.153.39.261a.384.384 0 0 1-.036.449m1.552-1.361a2.593 2.593 0 0 0-1.06-.905 4.47 4.47 0 0 1-2.436-3.765 12.89 12.89 0 0 0-.138-1.414C23.432 4.507 21.038 0 13.194 0h-.145C6.035 0 .574 4.656.044 11.096a12.104 12.104 0 0 0 1.707 7.307 12.125 12.125 0 0 1 .69 11.571.885.885 0 0 0 .183 1.021A16.131 16.131 0 0 0 13.112 35a15.627 15.627 0 0 0 3.422-.382.883.883 0 0 0 .707-.862v-3.631a16.638 16.638 0 0 0 5.268-.105 3.116 3.116 0 0 0 2.361-4.038 3.232 3.232 0 0 1 .088-.855l.11-.438a1.498 1.498 0 0 0-.194-1.181 1.476 1.476 0 0 0-.973-.648c-1.078-.19-1.806-.65-2.12-1.329a11.436 11.436 0 0 0 3.456-.498.882.882 0 0 0 .598-.88l-.102-2.079a4.464 4.464 0 0 0 1.714-1.155 2.123 2.123 0 0 0 .234-2.528" mask="url(#d)"/>
        </g>
    </g>
</svg>
