<svg xmlns="http://www.w3.org/2000/svg" xmlns:xlink="http://www.w3.org/1999/xlink" width="68" height="68" viewBox="0 0 68 68">
    <defs>
        <path id="a" d="M.955 0h25.852v21.875H.955z"/>
    </defs>
    <g fill="none" fill-rule="evenodd">
        <circle cx="34" cy="34" r="34" fill="#F7F7F7"/>
        <g transform="translate(24 17)">
            <mask id="b" fill="#fff">
                <use xlink:href="#a"/>
            </mask>
            <path fill="#BF662F" d="M7.915 1.988c1.988 0 3.651 1.935 4.545 2.975.556.646.861 1.003 1.421 1.003s.865-.357 1.422-1.003c.892-1.04 2.555-2.975 4.545-2.975a4.977 4.977 0 0 1 4.97 4.972c0 .965-.28 1.904-.809 2.714a.734.734 0 0 0-.042.07c-2.272 4.196-8.24 8.622-10.086 9.926-1.846-1.304-7.814-5.73-10.085-9.925-.014-.024-.027-.048-.042-.071a4.955 4.955 0 0 1-.81-2.714 4.978 4.978 0 0 1 4.971-4.972m5.414 19.719a.979.979 0 0 0 .552.168.978.978 0 0 0 .551-.168c.34-.225 8.323-5.591 11.263-10.98a6.927 6.927 0 0 0 1.112-3.767A6.968 6.968 0 0 0 19.847 0c-2.823 0-4.912 2.342-5.966 3.565C12.826 2.342 10.737 0 7.915 0a6.968 6.968 0 0 0-6.96 6.96c0 1.339.384 2.64 1.111 3.768C5.007 16.116 12.99 21.482 13.33 21.707" mask="url(#b)"/>
        </g>
        <path fill="#BF662F" d="M42.026 50.01h-10.11a.593.593 0 0 1-.275-.065c-.374-.232-4.052-2.491-5.775-3.065-1.281-.427-5.788-.448-6.678-.448a.199.199 0 0 1-.2-.2v-5.567c0-.11.09-.2.2-.2 1.4 0 2.549-.363 3.56-.683.864-.273 1.61-.51 2.406-.51 3.159 0 4.266.802 6.1 2.132.707.512 1.508 1.093 2.54 1.707.516.307 1.373.548 2.334.736 2.063.404 4.606.56 5.28.596h.052a.596.596 0 0 1 0 1.193c-.018 0-.035 0-.053.002l-7.523.395c-.6-.021-2.014-1.022-2.954-1.686a54.268 54.268 0 0 0-.713-.5c-.508-.352-.994-.667-1.438-.89a.995.995 0 0 0-.889 1.779c.513.256 1.183.73 1.892 1.233 1.492 1.057 2.901 2.055 4.121 2.055l.053-.001 7.534-.398a2.588 2.588 0 0 0 2.39-3.495c.798-.66 2.235-1.892 3.471-3.172.848-.877 1.186-.948 1.483-.774.263.155.457.457.355.76-.66.834-4.884 6.182-6.192 8.355-.176.288-.759.69-.97.712m7.812-11.544c-1.82-1.064-3.345.515-3.918 1.109-1.211 1.254-2.67 2.494-3.408 3.103a2.551 2.551 0 0 0-1.022-.224c-2.25-.121-5.794-.526-6.681-1.053-.954-.567-1.718-1.12-2.39-1.608-1.934-1.402-3.462-2.51-7.266-2.51-1.104 0-2.07.306-3.005.603-.96.304-1.867.59-2.961.59A2.189 2.189 0 0 0 17 40.666v5.568c0 1.207.98 2.187 2.186 2.187 2.08 0 5.331.108 6.05.347 1.293.43 4.323 2.228 5.382 2.884l.04.024c.383.213.817.325 1.256.325h10.111c1.07 0 2.26-.99 2.673-1.675 1.326-2.2 6.08-8.186 6.128-8.246a.962.962 0 0 0 .11-.174c.616-1.232.144-2.71-1.098-3.438"/>
    </g>
</svg>
