<svg width="64" height="44" viewBox="0 0 64 44" fill="none" xmlns="http://www.w3.org/2000/svg">
    <path fill-rule="evenodd" clip-rule="evenodd" d="M30 1.75H22.5111C21.5722 1.75 20.6791 2.15605 20.0619 2.8636L19.3124 3.72286C18.0305 5.19238 16.1758 6.03572 14.2257 6.03572H10C8.20507 6.03572 6.75 7.49079 6.75 9.28572V39C6.75 40.7949 8.20508 42.25 10 42.25H30H33H53C54.7949 42.25 56.25 40.7949 56.25 39V9.28572C56.25 7.49079 54.7949 6.03572 53 6.03572H48.7281C46.7781 6.03572 44.9233 5.19238 43.6415 3.72286L42.8919 2.8636C42.2747 2.15605 41.3817 1.75 40.4428 1.75H33H30ZM30 0.25H33H40.4428C41.815 0.25 43.1202 0.843461 44.0223 1.87757L44.7718 2.73683C45.7688 3.87979 47.2114 4.53572 48.7281 4.53572H53C55.6234 4.53572 57.75 6.66236 57.75 9.28572V39C57.75 41.6233 55.6234 43.75 53 43.75H33H30H10C7.37665 43.75 5.25 41.6233 5.25 39V9.28572C5.25 6.66236 7.37664 4.53572 10 4.53572H14.2257C15.7424 4.53572 17.185 3.87979 18.182 2.73683L18.9316 1.87757C19.8336 0.843461 21.1388 0.25 22.5111 0.25H30Z" fill="white"/>
    <circle cx="31" cy="24" r="10.5" stroke="white"/>
</svg>