<svg xmlns="http://www.w3.org/2000/svg" xmlns:xlink="http://www.w3.org/1999/xlink" width="68" height="68" viewBox="0 0 68 68">
    <defs>
        <path id="a" d="M0 0h36.667v36.668H.001z"/>
    </defs>
    <g fill="none" fill-rule="evenodd">
        <circle cx="34" cy="34" r="34" fill="#F7F7F7"/>
        <g transform="translate(16 16)">
            <mask id="b" fill="#fff">
                <use xlink:href="#a"/>
            </mask>
            <path fill="#BF662F" d="M29.168 11.904l4.882 9.76h-9.764l4.881-9.76zm0 16.26c-2.69 0-4.913-1.945-5.387-4.5h10.773c-.474 2.555-2.698 4.5-5.387 4.5zM15 5.335A3.337 3.337 0 0 1 18.334 2a3.338 3.338 0 0 1 3.334 3.334 3.338 3.338 0 0 1-3.334 3.334A3.337 3.337 0 0 1 15 5.334zm-2.618 16.33H2.617l4.883-9.76 4.881 9.76zm-4.882 6.5c-2.69 0-4.915-1.945-5.389-4.5h10.775c-.473 2.555-2.699 4.5-5.387 4.5zm14.266-5.92a.99.99 0 0 0-.1.42c0 4.137 3.364 7.5 7.5 7.5s7.5-3.363 7.5-7.5a.99.99 0 0 0-.099-.42c-.003-.007-.002-.017-.005-.026L30.066 9.23a.993.993 0 0 0-.43-.445c-.018-.01-.035-.02-.055-.027l-.002-.001a1.078 1.078 0 0 0-.431-.09h-6.684c.74-.915 1.204-2.065 1.204-3.333A5.34 5.34 0 0 0 18.334 0 5.34 5.34 0 0 0 13 5.334c0 1.268.462 2.418 1.204 3.334H7.52a1.129 1.129 0 0 0-.492.118h-.002a.985.985 0 0 0-.426.444L.106 22.218c-.004.009-.003.019-.006.027a.99.99 0 0 0-.1.42c0 4.136 3.365 7.5 7.5 7.5 4.136 0 7.5-3.364 7.5-7.5a.99.99 0 0 0-.1-.42c-.004-.008-.002-.018-.005-.027l-5.777-11.55h8.216v24H5.168a1 1 0 1 0 0 2h26.166a1 1 0 1 0 0-2h-12v-24h8.215l-5.776 11.55c-.003.009-.002.019-.006.027z" mask="url(#b)"/>
        </g>
    </g>
</svg>
