<svg xmlns="http://www.w3.org/2000/svg" width="68" height="68" viewBox="0 0 68 68">
    <g fill="none" fill-rule="evenodd">
        <circle cx="34" cy="34" r="34" fill="#F7F7F7"/>
        <path fill="#7B8C7D" d="M31.156 32.837a1.479 1.479 0 0 0-1.01 1.37V35.3a1.479 1.479 0 0 0 1.01 1.37v2.124a.641.641 0 0 1-.32.453l-6.523 2.32c-.02.008-.05.016-.077.023v-8.13c.303-.04.6-.115.885-.227l6.035-2.505v2.11zm-13.984 1.37a1.48 1.48 0 0 0-1.01-1.37v-1.893l5.958 2.32a3.7 3.7 0 0 0 .963.22v8.113a1.414 1.414 0 0 1-.145-.041l-6.444-2.414a.683.683 0 0 1-.331-.478V36.67l1.009-2.462zm15.137-1.37v-2.685c0-.49-.286-.793-.686-.793a.993.993 0 0 0-.38.082l-1.318.548a7.314 7.314 0 0 0-2.213-1.517 5.232 5.232 0 0 1-.913.89 6.228 6.228 0 0 1 1.937 1.12l-4.058 1.685a3.017 3.017 0 0 1-1.11.189c-.35.006-.698-.05-1.03-.166l-4.091-1.594a6.267 6.267 0 0 1 2.073-1.234 5.238 5.238 0 0 1-.914-.89 7.327 7.327 0 0 0-2.351 1.659l-1.171-.456a1.037 1.037 0 0 0-.365-.073.721.721 0 0 0-.71.808v2.427a1.48 1.48 0 0 0-1.01 1.37V35.3a1.48 1.48 0 0 0 1.01 1.37v1.995a1.79 1.79 0 0 0 1.08 1.558l6.445 2.414c.359.12.737.179 1.117.172.356.007.71-.046 1.049-.155l6.522-2.32a1.754 1.754 0 0 0 1.087-1.54V36.67a1.479 1.479 0 0 0 1.009-1.371v-1.091a1.479 1.479 0 0 0-1.01-1.371z"/>
        <path fill="#7B8C7D" d="M23.659 21.202a4.038 4.038 0 1 1-.002 8.075 4.038 4.038 0 0 1 .002-8.075M51.837 32.837a1.479 1.479 0 0 0-1.009 1.37V35.3a1.479 1.479 0 0 0 1.01 1.37v2.124a.641.641 0 0 1-.32.453l-6.524 2.32c-.02.008-.05.016-.076.023v-8.13c.303-.04.6-.115.885-.227l6.035-2.505v2.11zm-13.984 1.37a1.48 1.48 0 0 0-1.009-1.37v-1.893l5.957 2.32a3.7 3.7 0 0 0 .963.22v8.113a1.414 1.414 0 0 1-.145-.041l-6.444-2.414a.683.683 0 0 1-.33-.478V36.67l1.008-2.462zm15.137-1.37v-2.685c0-.49-.285-.793-.686-.793a.989.989 0 0 0-.379.082l-1.319.548a7.314 7.314 0 0 0-2.212-1.517 5.232 5.232 0 0 1-.913.89 6.228 6.228 0 0 1 1.936 1.12l-4.058 1.685a3.017 3.017 0 0 1-1.109.189c-.35.006-.699-.05-1.03-.166l-4.091-1.594a6.267 6.267 0 0 1 2.073-1.234 5.238 5.238 0 0 1-.914-.89 7.327 7.327 0 0 0-2.351 1.659l-1.171-.456a1.037 1.037 0 0 0-.365-.073.723.723 0 0 0-.71.808v2.427a1.48 1.48 0 0 0-1.01 1.37V35.3a1.48 1.48 0 0 0 1.01 1.37v1.995a1.79 1.79 0 0 0 1.08 1.558l6.445 2.414c.359.12.737.179 1.117.172.356.007.71-.046 1.049-.155l6.522-2.32a1.754 1.754 0 0 0 1.087-1.54V36.67A1.479 1.479 0 0 0 54 35.299v-1.091a1.479 1.479 0 0 0-1.01-1.371z"/>
        <path fill="#7B8C7D" d="M44.34 21.202a4.038 4.038 0 1 1-.001 8.075 4.038 4.038 0 0 1 .002-8.075"/>
        <path fill="#FFF" d="M27.294 32.211s.567-.743 2.632-1.566c2.063-.824 5.512-.772 7.968 0 2.456.771 2.46 1.421 2.46 1.421v3.312h-13.06v-3.167z"/>
        <path fill="#7B8C7D" d="M43.424 35.056a1.877 1.877 0 0 0-1.28 1.74v1.385a1.877 1.877 0 0 0 1.28 1.74v2.695a.812.812 0 0 1-.406.575l-8.28 2.946c-.026.01-.062.019-.097.028v-10.32c.385-.05.762-.145 1.123-.288l7.66-3.18v2.679zm-17.75 1.74a1.878 1.878 0 0 0-1.28-1.74v-2.403l7.561 2.946c.393.147.804.242 1.222.28v10.295a1.433 1.433 0 0 1-.184-.052l-8.179-3.063a.87.87 0 0 1-.42-.607V39.92l1.28-3.125zm19.214-1.74v-3.408c0-.622-.363-1.006-.87-1.006a1.272 1.272 0 0 0-.483.104l-1.673.695a9.277 9.277 0 0 0-2.809-1.925 6.7 6.7 0 0 1-1.16 1.129 7.937 7.937 0 0 1 2.46 1.422l-5.15 2.138a3.84 3.84 0 0 1-1.409.24 3.733 3.733 0 0 1-1.308-.21l-5.193-2.023a7.946 7.946 0 0 1 2.632-1.567 6.595 6.595 0 0 1-1.16-1.13 9.294 9.294 0 0 0-2.986 2.107l-1.486-.58a1.282 1.282 0 0 0-.462-.092.915.915 0 0 0-.902 1.026v3.08a1.876 1.876 0 0 0-1.28 1.74v1.385a1.876 1.876 0 0 0 1.28 1.74v2.53A2.276 2.276 0 0 0 24.3 44.43l8.18 3.065c.457.153.936.226 1.418.218.452.008.901-.058 1.332-.196l8.28-2.945a2.23 2.23 0 0 0 1.378-1.955V39.92a1.879 1.879 0 0 0 1.281-1.74v-1.385a1.879 1.879 0 0 0-1.28-1.74z"/>
        <path fill="#7B8C7D" d="M33.909 20.288a5.124 5.124 0 1 1 0 10.247 5.124 5.124 0 0 1 0-10.247M25.674 36.796a1.878 1.878 0 0 0-1.28-1.74v-2.403l7.561 2.946c.393.147.804.242 1.222.28v10.295a1.433 1.433 0 0 1-.184-.052l-8.179-3.063a.87.87 0 0 1-.42-.608v-2.53"/>
        <path fill="#FFF" d="M33.302 46.33l-.15-.034a1.48 1.48 0 0 1-.2-.057l-8.182-3.063a.995.995 0 0 1-.5-.704v-2.55h.25l-.002 2.53a.741.741 0 0 0 .358.498l8.161 3.055.015.005V35.991a4.798 4.798 0 0 1-1.14-.275l-7.393-2.88v2.132a2.006 2.006 0 0 1 1.28 1.825l-.25.006a1.758 1.758 0 0 0-1.195-1.625l-.085-.029V32.47L32 35.482c.383.144.782.236 1.19.273l.112.01V46.33z"/>
        <path fill="#7B8C7D" d="M43.424 35.056a1.877 1.877 0 0 0-1.28 1.74v1.385a1.877 1.877 0 0 0 1.28 1.74v2.695a.812.812 0 0 1-.406.575l-8.28 2.946c-.026.01-.062.019-.097.028v-10.32c.385-.05.762-.145 1.123-.288l7.66-3.18v2.679z"/>
        <path fill="#FFF" d="M34.766 35.954v10.04l8.21-2.922a.679.679 0 0 0 .325-.477L43.3 40.01a2.01 2.01 0 0 1-1.28-1.826v-1.387a2.01 2.01 0 0 1 1.28-1.828v-2.404l-7.487 3.108a4.858 4.858 0 0 1-1.046.282zm-.223 10.366l-.027-.155V35.736l.11-.014a4.6 4.6 0 0 0 1.092-.282l7.831-3.25v2.955l-.085.03a1.76 1.76 0 0 0-1.196 1.624v1.382a1.76 1.76 0 0 0 1.196 1.622l.085.028v2.784a.94.94 0 0 1-.47.685l-8.298 2.955c-.022.008-.05.015-.08.023l-.158.042z"/>
    </g>
</svg>
