<svg xmlns="http://www.w3.org/2000/svg" xmlns:xlink="http://www.w3.org/1999/xlink" width="68" height="68" viewBox="0 0 68 68">
    <defs>
        <path id="a" d="M.222.07h16.197v21.433H.222z"/>
    </defs>
    <g fill="none" fill-rule="evenodd">
        <circle cx="34" cy="34" r="34" fill="#F7F7F7"/>
        <path fill="#7B8C7D" d="M35.849 24.863c-.298.044-.595-.161-.641-.441-.047-.28.17-.56.467-.604.297-.044.592.141.638.421l.004.02c.046.28-.17.56-.468.604m-4.525 2.312c-.297.044-.595-.161-.641-.441-.047-.281.172-.561.468-.605.298-.044.594.161.64.441.05.299-.17.561-.467.605m6.039-3.09l-.59-3.566-.167-1.01-.266-1.605-5.84.86.167 1.007 4.791-.705.102.617-4.791.706.791 4.78a1.859 1.859 0 0 0-.57-.011c-.89.13-1.489.927-1.353 1.749.139.84.983 1.405 1.855 1.276.889-.131 1.488-.927 1.351-1.75l-.862-5.21 3.722-.547.359 2.166a1.858 1.858 0 0 0-.57-.012c-.891.131-1.49.927-1.353 1.75.139.84.983 1.404 1.854 1.276.87-.128 1.512-.912 1.37-1.77.003.018.003.018 0 0M41.022 29.672c1.474 0 2.67 1.098 2.67 2.453 0 1.354-1.196 2.45-2.67 2.45s-2.67-1.096-2.67-2.45c0-1.355 1.196-2.453 2.67-2.453M25.735 29.672c1.34 0 2.427 1.098 2.427 2.453 0 1.354-1.087 2.45-2.427 2.45s-2.426-1.096-2.426-2.45c0-1.355 1.087-2.453 2.426-2.453M43.934 18.394c.67 0 1.213.55 1.213 1.226 0 .678-.542 1.226-1.213 1.226a1.22 1.22 0 0 1-1.213-1.226 1.22 1.22 0 0 1 1.213-1.226M26.464 19.375c.401 0 .727.33.727.735a.731.731 0 0 1-.727.736.732.732 0 0 1-.729-.736c0-.406.326-.735.729-.735M48.302 25.75c.401 0 .727.33.727.735a.732.732 0 0 1-.727.735.732.732 0 0 1-.728-.735c0-.406.326-.736.728-.736M18.698 25.75c.402 0 .728.33.728.735a.732.732 0 0 1-.728.735.732.732 0 0 1-.727-.735c0-.406.326-.736.727-.736M25.493 13c.401 0 .728.33.728.736a.731.731 0 0 1-.728.735.732.732 0 0 1-.728-.735c0-.406.326-.736.728-.736M36.655 13.98c.401 0 .727.33.727.736a.732.732 0 0 1-.727.736.733.733 0 0 1-.729-.736c0-.406.328-.735.729-.735M48.3 13.98c.402 0 .73.33.73.736a.733.733 0 0 1-.73.736.732.732 0 0 1-.726-.736c0-.406.326-.735.727-.735M20.154 17.904c.403 0 .728.329.728.735a.732.732 0 0 1-.728.736.732.732 0 0 1-.728-.736c0-.406.327-.735.728-.735"/>
        <path fill="#7B8C7D" d="M30.452 34.75l-1.274 1.306a1.104 1.104 0 0 0-.955-.55H23.32c-.382 0-.765.207-.955.55l-3.375-3.571c-.51-.481-1.21-.481-1.655 0-.447.48-.447 1.304 0 1.785l4.711 5.081v13.047c0 .55.32 1.099.764 1.236.765.275 1.592-.343 1.592-1.167v-5.08c0-.757.574-1.307 1.21-1.307h.191c.7 0 1.21.62 1.21 1.306v5.012c0 .55.319 1.099.765 1.236.764.275 1.59-.343 1.59-1.167V39.419l2.676-2.883-1.592-1.785z"/>
        <path fill="#7B8C7D" d="M32.428 32.623l-1.976 2.128 1.592 1.785 1.923-2.078c.742-.92.742-1.7.393-2.264-.86-.558-1.349.156-1.932.429z"/>
        <path fill="#7B8C7D" d="M35.484 34.727l-2.334-2.309c-.515-.569-1.223-.569-1.675 0-.451.57-.172 1.316.28 1.885l1.967 2.205 1.762-1.78z"/>
        <g transform="translate(33.5 32.124)">
            <mask id="b" fill="#fff">
                <use xlink:href="#a"/>
            </mask>
            <path fill="#7B8C7D" d="M16.012 2.26c.542-.479.542-1.232 0-1.78-.541-.548-1.22-.548-1.761 0l-3.594 3.56c-.203-.341-.608-.547-1.016-.547H4.423c-.406 0-.813.206-1.016.548L1.984 2.603.222 4.384 3.068 7.26v2.054L.764 13.56c-.068.206.067.342.203.342h3.05v6.369a1.22 1.22 0 0 0 1.22 1.232c.676 0 1.22-.547 1.22-1.232v-6.369H7.54v6.369a1.22 1.22 0 0 0 1.22 1.232c.677 0 1.22-.547 1.22-1.232v-6.369h3.049c.204 0 .338-.205.204-.342L10.93 9.314V7.26l5.083-5z" mask="url(#b)"/>
        </g>
    </g>
</svg>
